<svg width="24" height="9" viewBox="0 0 24 9" xmlns="http://www.w3.org/2000/svg"><title>Artboard</title><path d="M0 .373v-1c.928 0 1.69.451 3.133 1.615l.154.124C4.693 2.25 5.303 2.626 5.92 2.63c.616.003 1.2-.355 2.668-1.52C9.231.6 9.567.347 9.96.095c.735-.472 1.384-.722 2.03-.722.938 0 1.703.444 2.931 1.48l.314.268c1.323 1.128 1.936 1.509 2.652 1.509.72 0 1.36-.383 2.755-1.517.322-.261.441-.357.61-.49 1.085-.846 1.866-1.25 2.729-1.25v1c-.573 0-1.194.32-2.113 1.04-.162.126-.278.219-.595.476-1.59 1.291-2.34 1.74-3.386 1.74-1.051 0-1.785-.454-3.3-1.747a68.877 68.877 0 0 0-.31-.264C13.224.731 12.608.373 11.99.373c-.42 0-.901.186-1.49.563-.356.229-.673.468-1.29.957C7.527 3.23 6.867 3.635 5.917 3.63c-.95-.005-1.643-.434-3.258-1.74l-.153-.123C1.255.757.605.373 0 .373zm0-3v-1c.928 0 1.69.451 3.133 1.615l.154.124C4.693-.75 5.303-.374 5.92-.37c.616.003 1.2-.355 2.668-1.52.642-.51.978-.763 1.371-1.015.735-.472 1.384-.722 2.03-.722.938 0 1.703.444 2.931 1.48l.314.268C16.558-.751 17.171-.37 17.887-.37c.72 0 1.36-.383 2.755-1.517.322-.261.441-.357.61-.49 1.085-.846 1.866-1.25 2.729-1.25v1c-.573 0-1.194.32-2.113 1.04-.162.126-.278.219-.595.476C19.683.18 18.933.63 17.887.63c-1.051 0-1.785-.454-3.3-1.747a68.877 68.877 0 0 0-.31-.264c-1.052-.887-1.668-1.245-2.287-1.245-.42 0-.901.186-1.49.563-.356.229-.673.468-1.29.957C7.527.23 6.867.635 5.917.63 4.966.625 4.273.196 2.658-1.11l-.153-.123C1.255-2.243.605-2.627 0-2.627zM0 3.37v-1c.928 0 1.69.452 3.133 1.616l.154.124C4.693 5.25 5.303 5.625 5.92 5.63c.616.003 1.2-.355 2.668-1.52.642-.51.978-.763 1.371-1.015.735-.472 1.384-.723 2.03-.723.938 0 1.703.445 2.931 1.482.086.072.158.133.314.267 1.323 1.128 1.936 1.509 2.652 1.509.72 0 1.36-.383 2.755-1.517.322-.262.441-.357.61-.49 1.085-.847 1.866-1.25 2.729-1.25v1c-.573 0-1.194.32-2.113 1.039-.162.126-.278.22-.595.477-1.59 1.291-2.34 1.74-3.386 1.74-1.051 0-1.785-.454-3.3-1.748a68.876 68.876 0 0 0-.31-.263C13.224 3.73 12.608 3.37 11.99 3.37c-.42 0-.901.187-1.49.564-.356.229-.673.468-1.29.957-1.684 1.337-2.344 1.741-3.294 1.737-.95-.005-1.643-.434-3.258-1.74l-.153-.123C1.255 3.756.605 3.37 0 3.37zM0 6.5v-1c.928 0 1.69.452 3.133 1.616l.154.124C4.693 8.377 5.303 8.754 5.92 8.757c.616.003 1.2-.355 2.668-1.52.642-.51.978-.762 1.371-1.015.735-.471 1.384-.722 2.03-.722.938 0 1.703.444 2.931 1.481l.314.267c1.323 1.128 1.936 1.51 2.652 1.51.72 0 1.36-.384 2.755-1.518.322-.261.441-.357.61-.489 1.085-.847 1.866-1.251 2.729-1.251v1c-.573 0-1.194.321-2.113 1.04-.162.126-.278.22-.595.477-1.59 1.29-2.34 1.74-3.386 1.74-1.051 0-1.785-.455-3.3-1.748a68.876 68.876 0 0 0-.31-.264C13.224 6.858 12.608 6.5 11.99 6.5c-.42 0-.901.186-1.49.564-.356.228-.673.467-1.29.956-1.684 1.338-2.344 1.742-3.294 1.737-.95-.005-1.643-.434-3.258-1.74l-.153-.123C1.255 6.885.605 6.5 0 6.5zm0 3v-1c.928 0 1.69.452 3.133 1.616l.154.124c1.406 1.137 2.016 1.514 2.634 1.517.616.003 1.2-.355 2.668-1.52.642-.51.978-.762 1.371-1.015.735-.471 1.384-.722 2.03-.722.938 0 1.703.444 2.931 1.481l.314.267c1.323 1.128 1.936 1.51 2.652 1.51.72 0 1.36-.384 2.755-1.518.322-.261.441-.357.61-.489 1.085-.847 1.866-1.251 2.729-1.251v1c-.573 0-1.194.321-2.113 1.04-.162.126-.278.22-.595.477-1.59 1.29-2.34 1.74-3.386 1.74-1.051 0-1.785-.455-3.3-1.748a68.87 68.87 0 0 0-.31-.264C13.224 9.858 12.608 9.5 11.99 9.5c-.42 0-.901.186-1.49.564-.356.228-.673.467-1.29.956-1.684 1.338-2.344 1.742-3.294 1.737-.95-.005-1.643-.434-3.258-1.74l-.153-.123C1.255 9.885.605 9.5 0 9.5z" fill="#8B7861" fill-rule="nonzero" fill-opacity=".1"/></svg>