<svg xmlns="http://www.w3.org/2000/svg" style="display:none;" fill-rule="evenodd">
  <symbol id="facebook" viewBox="0 0 512 512">
    <title>facebook</title>
    <path d="M500 250c0 138.066-111.934 250-250 250C111.933 500 0 388.066 0 250 0 111.933 111.933 0 250 0c138.066 0 250 111.933 250 250zm-187.157 9.792l5.919-57.38h-50.527v-33.815c0-12.667 8.378-15.646 14.34-15.646h36.317V97.199l-50.048-.217c-55.574 0-68.192 41.629-68.192 68.201v37.16h-32.143v57.449h32.143v163.417h67.583V259.792h44.608z" fill-rule="nonzero"/>
  </symbol>
  <symbol id="gplus" viewBox="0 0 512 512">
    <title>gplus</title>
    <path d="M500 250.378c0 137.79-111.934 249.501-250 249.501-138.067 0-250-111.71-250-249.5C0 112.586 111.933.876 250 .876c138.066 0 250 111.71 250 249.501zM87.04 261.54c-.893 42.934 28.745 83.891 69.48 97.245 38.406 12.884 85.604 3.258 111.128-29.555 18.67-22.998 22.892-53.64 20.89-82.285-32.88-.282-65.759-.195-98.595-.133-.044 11.687 0 23.327.065 35.01 19.671.543 39.364.304 59.057.695-4.984 17.004-16.299 32.813-33.467 38.938-33.184 14.593-75.507-4.452-85.93-39.199-12.621-33.247 8.008-73.38 42.062-83.043 21.129-7.428 42.867.934 60.949 11.882 9.14-8.534 17.713-17.68 26.134-26.91-20.541-17.134-46.914-27.645-74.027-25.343-53.203.633-99.767 49.644-97.746 102.698zm265.471-44.215c-.109 9.798-.196 19.611-.239 29.383-9.857.09-19.649.127-29.441.195v29.274c9.792.044 19.649.086 29.441.195.087 9.773.087 19.55.196 29.36 9.727 0 19.54-.042 29.332 0 .044-9.81.087-19.587.196-29.404 9.792-.065 19.627-.107 29.419-.151v-29.274c-9.792-.047-19.627-.107-29.419-.195-.071-9.773-.152-19.586-.196-29.383h-29.289z" fill-rule="nonzero"/>
  </symbol>
  <symbol id="instagram" viewBox="0 0 512 512">
    <title>instagram</title>
    <path d="M251 .9c138.07 0 250 111.708 250 249.501 0 137.795-111.93 249.501-250 249.501S1 388.196 1 250.402C1 112.606 112.93.9 251 .9zm74.529 132.77c23.774 0 43.141 19.3 43.142 43.054v148.71c0 23.753-19.368 43.081-43.141 43.081H176.498c-23.801 0-43.14-19.328-43.14-43.08V176.723c0-23.753 19.34-43.054 43.14-43.054h149.031zM251 206.452c24.671 0 44.745 20.033 44.745 44.628 0 24.622-20.074 44.656-44.745 44.656-24.644 0-44.718-20.034-44.718-44.656 0-24.62 20.074-44.628 44.718-44.628zm0 121.941c42.705 0 77.467-34.693 77.467-77.313 0-42.62-34.735-77.313-77.467-77.313-42.704 0-77.467 34.693-77.467 77.313 0 42.62 34.762 77.313 77.467 77.313zm79.97-138.64c10.091 0 18.333-8.194 18.333-18.293 0-10.075-8.242-18.296-18.333-18.296-10.119 0-18.333 8.221-18.333 18.296 0 10.099 8.214 18.293 18.333 18.293zm70.422 135.681v-148.71c0-41.748-34.027-75.735-75.862-75.735H176.498c-41.834 0-75.889 33.987-75.889 75.735v148.71c0 41.779 34.055 75.738 75.889 75.738H325.53c41.835 0 75.862-33.96 75.862-75.738z" fill-rule="nonzero"/>
  </symbol>
  <symbol id="magnifier" viewBox="0 0 512 512">
    <title>magnifier</title>
    <path d="M486.279 426.04L372.475 312.228a198.987 198.987 0 0 0 30.558-106.216C403.033 95.542 313.478 6 203.013 6 92.545 6 3 95.542 3 206.012c0 110.475 89.542 200.009 200.012 200.009a199.096 199.096 0 0 0 114.242-35.86l112.45 112.458a39.897 39.897 0 0 0 28.287 11.694 39.922 39.922 0 0 0 28.3-11.694c15.617-15.629 15.611-40.957-.012-56.579zm-283.267-84.82c-74.665 0-135.198-60.53-135.198-135.2 0-74.668 60.533-135.202 135.198-135.202 74.67 0 135.2 60.534 135.2 135.203 0 74.669-60.53 135.199-135.2 135.199z"/>
  </symbol>
  <symbol id="pinterest" viewBox="0 0 512 512">
    <title>pinterest</title>
    <path d="M500 250.378c0 137.79-111.934 249.501-250 249.501-138.067 0-250-111.71-250-249.5C0 112.586 111.933.876 250 .876c138.066 0 250 111.71 250 249.501zm-229.828 84.607c69.74 5.364 108.69-69.47 99.183-138.574-8.444-61.221-69.655-92.403-134.891-85.126-51.571 5.778-102.968 47.427-105.122 106.909-1.328 36.332 9.008 63.591 43.628 71.252 15.037-26.473-4.83-32.293-7.92-51.466-12.73-78.442 90.674-131.998 144.791-77.205 37.449 37.962 12.795 154.644-47.589 142.526-57.86-11.596 28.31-104.497-17.865-122.722-37.536-14.833-57.446 45.327-39.668 75.228-10.445 51.38-32.902 99.809-23.806 164.285 29.506-21.368 39.45-62.262 47.61-104.912 14.819 8.99 22.761 18.329 41.649 19.805z" fill-rule="nonzero"/>
  </symbol>
  <symbol id="twitter" viewBox="0 0 512 512">
    <title>twitter</title>
    <path d="M500 250.378c0 137.79-111.934 249.501-250 249.501-138.067 0-250-111.71-250-249.5C0 112.586 111.933.876 250 .876c138.066 0 250 111.71 250 249.501zm-96.875-70.187a119.627 119.627 0 0 1-34.315 9.384c12.338-7.39 21.803-19.07 26.286-32.99a120.277 120.277 0 0 1-37.95 14.466 59.728 59.728 0 0 0-43.628-18.831c-33.01 0-59.753 26.714-59.753 59.63 0 4.672.522 9.235 1.545 13.6-49.656-2.497-93.698-26.236-123.162-62.33-5.157 8.82-8.095 19.066-8.095 29.989 0 20.698 10.554 38.962 26.569 49.646-9.792-.307-18.996-2.997-27.069-7.47v.76c0 28.883 20.607 52.989 47.938 58.461a59.654 59.654 0 0 1-26.982 1.043c7.616 23.693 29.681 40.936 55.836 41.413-20.454 16.005-46.218 25.517-74.223 25.517-4.831 0-9.596-.261-14.253-.825 26.438 16.917 57.838 26.798 91.588 26.798 109.91 0 170.032-90.883 170.032-169.69 0-2.586-.065-5.15-.174-7.712 11.684-8.404 21.802-18.913 29.81-30.86z" fill-rule="nonzero"/>
  </symbol>
  <symbol id="youtube" viewBox="0 0 512 512">
    <title>youtube</title>
    <path d="M0 250C0 112.479 111.482.996 249 .996h1.006c137.519 0 249 111.491 249 249.004 0 137.521-111.482 249.004-249 249.004H249C111.481 499.004 0 387.513 0 250zM163.805 90.637c3.784 11.102 7.742 22.237 11.53 33.34 5.759 16.694 9.35 29.267 10.978 37.85v48.49h17.964v-48.49l21.589-71.19h-18.148l-12.239 46.997-12.79-46.997h-18.884zm86.118 29.41c-8.066 0-14.355 3.047-18.83 9.147-3.445 4.506-5.07 11.487-5.07 21.02v31.218c0 9.479 1.625 16.506 5.07 20.969 4.476 6.082 10.765 9.148 18.83 9.148 8.115 0 14.43-3.066 18.91-9.148 3.395-4.463 5.016-11.49 5.016-20.969v-31.217c0-9.533-1.621-16.515-5.016-21.021-4.48-6.1-10.795-9.148-18.91-9.148zm37.242 1.074v70.533c0 6.296.577 10.56 1.47 13.263 1.615 4.517 5.189 6.632 10.4 6.632 5.907 0 12.072-3.583 18.517-10.957v9.725h16.178V121.12h-16.178v68.174c-3.588 5.062-7.006 7.55-10.243 7.55-2.174 0-3.424-1.273-3.782-3.775-.195-.529-.21-2.504-.21-6.29v-65.66h-16.152zm-37.242 13.472c5.222 0 7.722 4.12 7.722 12.372v37.534c0 8.253-2.501 12.345-7.722 12.345-5.22 0-7.721-4.092-7.721-12.345v-37.534c0-8.252 2.5-12.372 7.721-12.372zm-6.487 90.323c-31.109 0-62.33.229-93.183 3.67-13.882 1.548-25.41 11.953-28.653 26.027-4.615 20.044-4.675 41.904-4.675 62.54v1.493c.002 20.201.117 41.479 4.622 61.046 3.244 14.073 14.798 24.48 28.68 26.027 30.889 3.446 62.117 3.644 93.262 3.644h12.028c31.144 0 62.375-.198 93.262-3.644 13.882-1.547 25.436-11.954 28.68-26.027 4.55-19.761 4.62-41.295 4.622-61.675v-.865c0-20.635.045-42.495-4.57-62.539-3.242-14.074-14.772-24.48-28.653-26.027-30.855-3.44-62.073-3.67-93.183-3.67h-12.239zm-106.735 32.921h55.889v16.67h-19.199v101.777H155.56V274.507H136.7v-16.67zm118.16 0h16.02v38.687c5.174-6.355 10.68-9.567 16.573-9.567 6.378 0 10.64 3.351 12.79 9.96 1.062 3.552 1.628 9.394 1.628 17.745v35.123c0 8.169-.567 14.055-1.628 17.797-2.15 6.561-6.412 9.908-12.79 9.908-5.697 0-11.219-3.139-16.573-9.75v8.544h-16.02V257.837zm83.596 29.12c8.04 0 14.448 3.002 18.936 9.043 3.356 4.464 4.938 11.353 4.938 20.785v18.27h-32.042v15.647c0 8.169 2.663 12.267 8.168 12.267 3.951 0 6.281-2.142 7.197-6.422.145-.871.341-4.436.341-10.85h16.336v2.358c0 5.144-.191 8.706-.342 10.301-.534 3.552-1.777 6.739-3.729 9.567-4.43 6.408-11.014 9.567-19.382 9.567-8.383 0-14.775-3.013-19.41-9.043-3.405-4.416-5.12-11.354-5.12-20.733v-30.929c0-9.432 1.534-16.321 4.937-20.785 4.635-6.04 10.994-9.043 19.172-9.043zm-143.53 1.075h15.995v64.977c0 3.748.009 5.684.158 6.212.39 2.477 1.614 3.722 3.755 3.722 3.216 0 6.58-2.434 10.138-7.444v-67.467h16.02v88.252h-16.02v-9.62c-6.37 7.293-12.415 10.826-18.306 10.826-5.162 0-8.744-2.084-10.348-6.553-.872-2.673-1.392-6.876-1.392-13.105v-69.8zm83.939 13.315c-2.634 0-5.303 1.241-7.985 3.88v53.784c2.682 2.674 5.35 3.932 7.985 3.932 4.621 0 6.986-3.9 6.986-11.874v-37.69c0-7.974-2.365-12.032-6.986-12.032zm59.486 0c-5.36 0-8.063 4.078-8.063 12.24v8.152h16.021v-8.151c.001-8.164-2.653-12.24-7.958-12.24z" fill-rule="nonzero"/>
  </symbol>
</svg>