<svg width="500" height="500" viewBox="0 0 500 500" xmlns="http://www.w3.org/2000/svg"><title>g+</title><path d="M500 250.378c0 137.79-111.934 249.501-250 249.501-138.067 0-250-111.71-250-249.5C0 112.586 111.933.876 250 .876c138.066 0 250 111.71 250 249.501zM87.04 261.54c-.893 42.934 28.745 83.891 69.48 97.245 38.406 12.884 85.604 3.258 111.128-29.555 18.67-22.998 22.892-53.64 20.89-82.285-32.88-.282-65.759-.195-98.595-.133-.044 11.687 0 23.327.065 35.01 19.671.543 39.364.304 59.057.695-4.984 17.004-16.299 32.813-33.467 38.938-33.184 14.593-75.507-4.452-85.93-39.199-12.621-33.247 8.008-73.38 42.062-83.043 21.129-7.428 42.867.934 60.949 11.882 9.14-8.534 17.713-17.68 26.134-26.91-20.541-17.134-46.914-27.645-74.027-25.343-53.203.633-99.767 49.644-97.746 102.698zm265.471-44.215c-.109 9.798-.196 19.611-.239 29.383-9.857.09-19.649.127-29.441.195v29.274c9.792.044 19.649.086 29.441.195.087 9.773.087 19.55.196 29.36 9.727 0 19.54-.042 29.332 0 .044-9.81.087-19.587.196-29.404 9.792-.065 19.627-.107 29.419-.151v-29.274c-9.792-.047-19.627-.107-29.419-.195-.071-9.773-.152-19.586-.196-29.383h-29.289z" fill="#000" fill-rule="nonzero"/></svg>