<svg width="500" height="500" viewBox="0 0 500 500" xmlns="http://www.w3.org/2000/svg"><title>instagram</title><path d="M251 .9c138.07 0 250 111.708 250 249.501 0 137.795-111.93 249.501-250 249.501S1 388.196 1 250.402C1 112.606 112.93.9 251 .9zm74.529 132.77c23.774 0 43.141 19.3 43.142 43.054v148.71c0 23.753-19.368 43.081-43.141 43.081H176.498c-23.801 0-43.14-19.328-43.14-43.08V176.723c0-23.753 19.34-43.054 43.14-43.054h149.031zM251 206.452c24.671 0 44.745 20.033 44.745 44.628 0 24.622-20.074 44.656-44.745 44.656-24.644 0-44.718-20.034-44.718-44.656 0-24.62 20.074-44.628 44.718-44.628zm0 121.941c42.705 0 77.467-34.693 77.467-77.313 0-42.62-34.735-77.313-77.467-77.313-42.704 0-77.467 34.693-77.467 77.313 0 42.62 34.762 77.313 77.467 77.313zm79.97-138.64c10.091 0 18.333-8.194 18.333-18.293 0-10.075-8.242-18.296-18.333-18.296-10.119 0-18.333 8.221-18.333 18.296 0 10.099 8.214 18.293 18.333 18.293zm70.422 135.681v-148.71c0-41.748-34.027-75.735-75.862-75.735H176.498c-41.834 0-75.889 33.987-75.889 75.735v148.71c0 41.779 34.055 75.738 75.889 75.738H325.53c41.835 0 75.862-33.96 75.862-75.738z" fill="#000" fill-rule="nonzero"/></svg>