<svg width="500" height="500" viewBox="0 0 500 500" xmlns="http://www.w3.org/2000/svg"><title>magnifier</title><path d="M486.279 426.04L372.475 312.228a198.987 198.987 0 0 0 30.558-106.216C403.033 95.542 313.478 6 203.013 6 92.545 6 3 95.542 3 206.012c0 110.475 89.542 200.009 200.012 200.009a199.096 199.096 0 0 0 114.242-35.86l112.45 112.458a39.897 39.897 0 0 0 28.287 11.694 39.922 39.922 0 0 0 28.3-11.694c15.617-15.629 15.611-40.957-.012-56.579zm-283.267-84.82c-74.665 0-135.198-60.53-135.198-135.2 0-74.668 60.533-135.202 135.198-135.202 74.67 0 135.2 60.534 135.2 135.203 0 74.669-60.53 135.199-135.2 135.199z" fill="#000" fill-rule="nonzero"/></svg>