<svg width="500" height="500" viewBox="0 0 500 500" xmlns="http://www.w3.org/2000/svg"><title>pinterest</title><path d="M500 250.378c0 137.79-111.934 249.501-250 249.501-138.067 0-250-111.71-250-249.5C0 112.586 111.933.876 250 .876c138.066 0 250 111.71 250 249.501zm-229.828 84.607c69.74 5.364 108.69-69.47 99.183-138.574-8.444-61.221-69.655-92.403-134.891-85.126-51.571 5.778-102.968 47.427-105.122 106.909-1.328 36.332 9.008 63.591 43.628 71.252 15.037-26.473-4.83-32.293-7.92-51.466-12.73-78.442 90.674-131.998 144.791-77.205 37.449 37.962 12.795 154.644-47.589 142.526-57.86-11.596 28.31-104.497-17.865-122.722-37.536-14.833-57.446 45.327-39.668 75.228-10.445 51.38-32.902 99.809-23.806 164.285 29.506-21.368 39.45-62.262 47.61-104.912 14.819 8.99 22.761 18.329 41.649 19.805z" fill="#000" fill-rule="nonzero"/></svg>