<svg width="500" height="500" viewBox="0 0 500 500" xmlns="http://www.w3.org/2000/svg"><title>youtube</title><path d="M0 250C0 112.479 111.482.996 249 .996h1.006c137.519 0 249 111.491 249 249.004 0 137.521-111.482 249.004-249 249.004H249C111.481 499.004 0 387.513 0 250zM163.805 90.637c3.784 11.102 7.742 22.237 11.53 33.34 5.759 16.694 9.35 29.267 10.978 37.85v48.49h17.964v-48.49l21.589-71.19h-18.148l-12.239 46.997-12.79-46.997h-18.884zm86.118 29.41c-8.066 0-14.355 3.047-18.83 9.147-3.445 4.506-5.07 11.487-5.07 21.02v31.218c0 9.479 1.625 16.506 5.07 20.969 4.476 6.082 10.765 9.148 18.83 9.148 8.115 0 14.43-3.066 18.91-9.148 3.395-4.463 5.016-11.49 5.016-20.969v-31.217c0-9.533-1.621-16.515-5.016-21.021-4.48-6.1-10.795-9.148-18.91-9.148zm37.242 1.074v70.533c0 6.296.577 10.56 1.47 13.263 1.615 4.517 5.189 6.632 10.4 6.632 5.907 0 12.072-3.583 18.517-10.957v9.725h16.178V121.12h-16.178v68.174c-3.588 5.062-7.006 7.55-10.243 7.55-2.174 0-3.424-1.273-3.782-3.775-.195-.529-.21-2.504-.21-6.29v-65.66h-16.152zm-37.242 13.472c5.222 0 7.722 4.12 7.722 12.372v37.534c0 8.253-2.501 12.345-7.722 12.345-5.22 0-7.721-4.092-7.721-12.345v-37.534c0-8.252 2.5-12.372 7.721-12.372zm-6.487 90.323c-31.109 0-62.33.229-93.183 3.67-13.882 1.548-25.41 11.953-28.653 26.027-4.615 20.044-4.675 41.904-4.675 62.54v1.493c.002 20.201.117 41.479 4.622 61.046 3.244 14.073 14.798 24.48 28.68 26.027 30.889 3.446 62.117 3.644 93.262 3.644h12.028c31.144 0 62.375-.198 93.262-3.644 13.882-1.547 25.436-11.954 28.68-26.027 4.55-19.761 4.62-41.295 4.622-61.675v-.865c0-20.635.045-42.495-4.57-62.539-3.242-14.074-14.772-24.48-28.653-26.027-30.855-3.44-62.073-3.67-93.183-3.67h-12.239zm-106.735 32.921h55.889v16.67h-19.199v101.777H155.56V274.507H136.7v-16.67zm118.16 0h16.02v38.687c5.174-6.355 10.68-9.567 16.573-9.567 6.378 0 10.64 3.351 12.79 9.96 1.062 3.552 1.628 9.394 1.628 17.745v35.123c0 8.169-.567 14.055-1.628 17.797-2.15 6.561-6.412 9.908-12.79 9.908-5.697 0-11.219-3.139-16.573-9.75v8.544h-16.02V257.837zm83.596 29.12c8.04 0 14.448 3.002 18.936 9.043 3.356 4.464 4.938 11.353 4.938 20.785v18.27h-32.042v15.647c0 8.169 2.663 12.267 8.168 12.267 3.951 0 6.281-2.142 7.197-6.422.145-.871.341-4.436.341-10.85h16.336v2.358c0 5.144-.191 8.706-.342 10.301-.534 3.552-1.777 6.739-3.729 9.567-4.43 6.408-11.014 9.567-19.382 9.567-8.383 0-14.775-3.013-19.41-9.043-3.405-4.416-5.12-11.354-5.12-20.733v-30.929c0-9.432 1.534-16.321 4.937-20.785 4.635-6.04 10.994-9.043 19.172-9.043zm-143.53 1.075h15.995v64.977c0 3.748.009 5.684.158 6.212.39 2.477 1.614 3.722 3.755 3.722 3.216 0 6.58-2.434 10.138-7.444v-67.467h16.02v88.252h-16.02v-9.62c-6.37 7.293-12.415 10.826-18.306 10.826-5.162 0-8.744-2.084-10.348-6.553-.872-2.673-1.392-6.876-1.392-13.105v-69.8zm83.939 13.315c-2.634 0-5.303 1.241-7.985 3.88v53.784c2.682 2.674 5.35 3.932 7.985 3.932 4.621 0 6.986-3.9 6.986-11.874v-37.69c0-7.974-2.365-12.032-6.986-12.032zm59.486 0c-5.36 0-8.063 4.078-8.063 12.24v8.152h16.021v-8.151c.001-8.164-2.653-12.24-7.958-12.24z" fill="#000" fill-rule="nonzero"/></svg>